<svg width="60" height="60" viewBox="0 0 60 60" fill="none" xmlns="http://www.w3.org/2000/svg">
<path d="M47.5 15H12.5C11.1193 15 10 16.1193 10 17.5V42.5C10 43.8807 11.1193 45 12.5 45H47.5C48.8807 45 50 43.8807 50 42.5V17.5C50 16.1193 48.8807 15 47.5 15Z" fill="#5810ff" fill-opacity="0.1" stroke="#5810ff" stroke-width="2"/>
<path d="M15 20H45" stroke="#5810ff" stroke-width="2"/>
<path d="M15 25H35" stroke="#5810ff" stroke-width="2"/>
<path d="M15 30H40" stroke="#5810ff" stroke-width="2"/>
<path d="M15 35H30" stroke="#5810ff" stroke-width="2"/>
<circle cx="20" cy="42" r="2" fill="#5810ff"/>
<circle cx="25" cy="42" r="2" fill="#5810ff"/>
<circle cx="30" cy="42" r="2" fill="#5810ff"/>
<path d="M25 7.5V15" stroke="#5810ff" stroke-width="2"/>
<path d="M35 7.5V15" stroke="#5810ff" stroke-width="2"/>
<path d="M20 52.5H40" stroke="#5810ff" stroke-width="2"/>
<path d="M27.5 45V52.5" stroke="#5810ff" stroke-width="2"/>
<path d="M32.5 45V52.5" stroke="#5810ff" stroke-width="2"/>
</svg>