<svg width="60" height="60" viewBox="0 0 60 60" fill="none" xmlns="http://www.w3.org/2000/svg">
<path d="M52.5 7.5H7.5C6.11929 7.5 5 8.61929 5 10V40C5 41.3807 6.11929 42.5 7.5 42.5H52.5C53.8807 42.5 55 41.3807 55 40V10C55 8.61929 53.8807 7.5 52.5 7.5Z" stroke="#5810ff" stroke-width="2"/>
<path d="M5 15H55" stroke="#5810ff" stroke-width="2"/>
<circle cx="10" cy="11" r="1" fill="#5810ff"/>
<circle cx="15" cy="11" r="1" fill="#5810ff"/>
<circle cx="20" cy="11" r="1" fill="#5810ff"/>
<path d="M25 32.5H45" stroke="#5810ff" stroke-width="2"/>
<path d="M25 37.5H40" stroke="#5810ff" stroke-width="2"/>
<path d="M15 25V35C15 36.3807 16.1193 37.5 17.5 37.5H22.5C23.8807 37.5 25 36.3807 25 35V25C25 23.6193 23.8807 22.5 22.5 22.5H17.5C16.1193 22.5 15 23.6193 15 25Z" fill="#5810ff"/>
<path d="M30 52.5H45" stroke="#5810ff" stroke-width="2"/>
<path d="M35 42.5V52.5" stroke="#5810ff" stroke-width="2"/>
<path d="M15 52.5H25" stroke="#5810ff" stroke-width="2"/>
</svg>